<?xml version="1.0" encoding="UTF-8" standalone="no"?>
<!-- Uploaded to: SVG Repo, www.svgrepo.com, Transformed by: SVG Repo Mixer Tools -->

<svg
   width="256px"
   height="256px"
   viewBox="0 0 18 18"
   fill="#d8ab4e"
   version="1.1"
   id="svg1"
   sodipodi:docname="logo.svg"
   inkscape:version="1.3 (0e150ed6c4, 2023-07-21)"
   inkscape:export-filename="logo.svg"
   inkscape:export-xdpi="96"
   inkscape:export-ydpi="96"
   xmlns:inkscape="http://www.inkscape.org/namespaces/inkscape"
   xmlns:sodipodi="http://sodipodi.sourceforge.net/DTD/sodipodi-0.dtd"
   xmlns:xlink="http://www.w3.org/1999/xlink"
   xmlns="http://www.w3.org/2000/svg"
   xmlns:svg="http://www.w3.org/2000/svg">
  <defs
     id="defs1">
    <linearGradient
       id="linearGradient3"
       inkscape:collect="always">
      <stop
         style="stop-color:#d8ab4e;stop-opacity:1;"
         offset="0"
         id="stop3" />
      <stop
         style="stop-color:#b48c36;stop-opacity:1;"
         offset="1"
         id="stop4" />
    </linearGradient>
    <linearGradient
       inkscape:collect="always"
       xlink:href="#linearGradient3"
       id="linearGradient4"
       x1="0"
       y1="9"
       x2="18"
       y2="9"
       gradientUnits="userSpaceOnUse" />
  </defs>
  <sodipodi:namedview
     id="namedview1"
     pagecolor="#505050"
     bordercolor="#ffffff"
     borderopacity="1"
     inkscape:showpageshadow="0"
     inkscape:pageopacity="0"
     inkscape:pagecheckerboard="1"
     inkscape:deskcolor="#505050"
     showgrid="false"
     inkscape:zoom="1.5371094"
     inkscape:cx="157.76366"
     inkscape:cy="115.47649"
     inkscape:window-width="1920"
     inkscape:window-height="1001"
     inkscape:window-x="-9"
     inkscape:window-y="-9"
     inkscape:window-maximized="1"
     inkscape:current-layer="SVGRepo_iconCarrier"
     showguides="false" />
  <g
     id="SVGRepo_bgCarrier"
     stroke-width="0" />
  <g
     id="SVGRepo_tracerCarrier"
     stroke-linecap="round"
     stroke-linejoin="round" />
  <g
     id="SVGRepo_iconCarrier">
    <path
       fill="#d8ab4e"
       fill-rule="evenodd"
       d="M 1,17 H 5.50899 C 5.78017,17 6,17.23193 6,17.5 6,17.77614 5.77212,18 5.50899,18 H 0.491 C 0.35693,18 0.23541,17.9433 0.14681,17.85358 0.05476,17.76066 0,17.63914 0,17.50899 V 12.491 C 0,12.21983 0.23193,12 0.5,12 0.77614,12 1,12.22788 1,12.491 Z m 16,0 H 12.491 C 12.22788,17 12,17.22386 12,17.5 c 0,0.26807 0.21983,0.5 0.491,0.5 h 5.01799 c 0.13014,0 0.25165,-0.0548 0.34124,-0.14351 C 17.9433,17.7646 18,17.64307 18,17.50899 V 12.491 C 18,12.22788 17.77614,12 17.5,12 17.23193,12 17,12.21983 17,12.491 Z M 17.85319,0.14642 C 17.76459,0.05669 17.64307,0 17.50899,0 H 12.491 C 12.22788,0 12,0.22386 12,0.5 12,0.76807 12.21983,1 12.491,1 H 17 V 5.50899 C 17,5.77212 17.22386,6 17.5,6 17.76807,6 18,5.78017 18,5.50899 V 0.491 C 18,0.36086 17.9452,0.23934 17.85647,0.14975 Z M 0.14977,0.14342 C 0.23936,0.05476 0.36087,0 0.491,0 H 5.50899 C 5.78017,0 6,0.23193 6,0.5 6,0.77614 5.77212,1 5.50899,1 H 1 V 5.50899 C 1,5.78017 0.76807,6 0.5,6 0.22386,6 0,5.77212 0,5.50899 V 0.491 C 0,0.35693 0.0567,0.2354 0.14643,0.14679 Z"
       id="path1"
       sodipodi:nodetypes="csssscssssccsssscssssccsssscsssscccsssscsssscc"
       style="fill:url(#linearGradient4)" />
    <text
       xml:space="preserve"
       style="font-style:normal;font-variant:normal;font-weight:normal;font-stretch:normal;font-size:5.15625px;line-height:0.9;font-family:Haettenschweiler;-inkscape-font-specification:Haettenschweiler;text-align:center;text-anchor:middle;fill:#1e1e1e;stroke-width:0.000265748"
       x="9.0050354"
       y="8.5354023"
       id="text2"><tspan
         sodipodi:role="line"
         id="tspan2"
         style="font-style:normal;font-variant:normal;font-weight:bold;font-stretch:condensed;font-size:5.15625px;line-height:0.9;font-family:'Agency FB';-inkscape-font-specification:'Agency FB Bold Condensed';stroke-width:0.000265748"
         x="9.0050354"
         y="8.5354023">STUDIO</tspan><tspan
         sodipodi:role="line"
         style="font-style:normal;font-variant:normal;font-weight:bold;font-stretch:condensed;font-size:5.15625px;line-height:0.9;font-family:'Agency FB';-inkscape-font-specification:'Agency FB Bold Condensed';stroke-width:0.000265748"
         x="9.0050354"
         y="13.404799"
         id="tspan3">220</tspan></text>
  </g>
</svg>
